<svg height="512" viewBox="0 0 512 512" width="512" xmlns="http://www.w3.org/2000/svg"><g id="Filled_outline"><path d="m488 256c0 128.13-103.87 232-232 232a232 232 0 0 1 -232-232c0-128.13 103.87-232 232-232a232 232 0 0 1 232 232z" fill="#348fd9"/><g fill="#3086cd"><path d="m403.75 77.13c-120.46 37.5-275.18 124.38-327.65 325.36a231.028 231.028 0 0 1 -52.1-146.49c0-128.13 103.87-232 232-232a231.022 231.022 0 0 1 147.75 53.13z"/><path d="m224 80h-56v96a47.924 47.924 0 0 0 19.466 38.585c8.088 5.965 12.218 15.928 11.875 25.971l-5.72 183.458a23.2 23.2 0 1 0 46.365 0l-7.327-183.458c-.343-10.043 3.787-20.006 11.875-25.971a47.924 47.924 0 0 0 19.466-38.585v-96z"/><path d="m349.366 88a26.634 26.634 0 0 0 -26 20.856 477.284 477.284 0 0 0 -11.366 103.535v83.609h27.035l-9.327 127.232a23.173 23.173 0 1 0 46.292 1.595v-310.193a26.634 26.634 0 0 0 -26.634-26.634z"/></g><path d="m152 64v96a47.924 47.924 0 0 0 19.466 38.585c8.088 5.965 12.218 15.928 11.875 25.971l-5.72 183.458a23.2 23.2 0 1 0 46.365 0l-7.327-183.458c-.343-10.043 3.787-20.006 11.875-25.971a47.924 47.924 0 0 0 19.466-38.585v-96z" fill="#ebebe9"/><path d="m176 64h16v88h-16z" fill="#d6d6d4"/><path d="m208 64h16v88h-16z" fill="#d6d6d4"/><path d="m307.365 92.857a477.268 477.268 0 0 0 -11.365 103.534v83.609h27.035l-9.327 127.232a23.174 23.174 0 0 0 23.119 24.768 23.173 23.173 0 0 0 23.173-23.173v-310.192a26.635 26.635 0 0 0 -26.635-26.635 26.634 26.634 0 0 0 -26 20.857z" fill="#ebebe9"/><path d="m256 16c-132.336 0-240 107.664-240 240s107.664 240 240 240 240-107.664 240-240-107.664-240-240-240zm0 464c-123.516 0-224-100.484-224-224s100.484-224 224-224 224 100.484 224 224-100.484 224-224 224z"/><path d="m122.891 117.766-11.091-11.532c-4.852 4.68-9.524 9.625-13.875 14.711l12.156 10.407c4.019-4.704 8.333-9.274 12.81-13.586z"/><path d="m48.656 239.367 15.953 1.266a191.284 191.284 0 0 1 34.625-95.367l-13.062-9.25a207.42 207.42 0 0 0 -37.516 103.351z"/><path d="m368 98.633a34.634 34.634 0 0 0 -68.445-7.508c-1.351 6.08-2.436 12.219-3.552 18.35a148.5 148.5 0 0 0 -40-5.32v-40.155h-16.003v96a40.253 40.253 0 0 1 -8 24 39.8 39.8 0 0 1 -8.219 8.148c-9.914 7.313-15.57 19.532-15.117 32.727l7.328 183.414a15.075 15.075 0 0 1 -4.265 11.078 15.571 15.571 0 0 1 -21.852 0 15.1 15.1 0 0 1 -4.266-11.1l5.727-183.438c.453-13.148-5.2-25.367-15.125-32.68a39.8 39.8 0 0 1 -8.211-8.157 40.212 40.212 0 0 1 -8-23.992v-96h-16v89.492a151.493 151.493 0 0 0 26.447 227.933l-.822 26.317a31.195 31.195 0 1 0 62.352-.047l-.067-1.673a149.176 149.176 0 0 0 74.356-6.7l-.539 7.36a31.173 31.173 0 1 0 62.273 2.146v-50.32a151.349 151.349 0 0 0 0-205.016zm-196.948 263.411a135.468 135.468 0 0 1 -24.647-186.3 54.775 54.775 0 0 0 20.314 29.284c5.672 4.18 8.9 11.383 8.633 19.282zm136.508 19.61a130.071 130.071 0 0 1 -76.311 7.83l-6.6-165.2c-.265-7.875 2.961-15.078 8.625-19.258a55.646 55.646 0 0 0 11.526-11.426 56.3 56.3 0 0 0 11.2-33.6v-39.864a132.405 132.405 0 0 1 37.389 5.222 485.96 485.96 0 0 0 -5.389 71.033v83.609a8 8 0 0 0 8 8h18.422zm44.44 27.174a15.188 15.188 0 0 1 -15.172 15.172 15.171 15.171 0 0 1 -15.14-16.18l9.32-127.234a8 8 0 0 0 -7.977-8.586h-19.031v-75.609a469.614 469.614 0 0 1 11.18-101.8 18.631 18.631 0 0 1 36.82 4.042zm40-152.828a134.989 134.989 0 0 1 -24 76.9v-153.8a134.989 134.989 0 0 1 24 76.9z"/><path d="m176 64h16v88h-16z"/><path d="m208 64h16v88h-16z"/></g></svg>