<?xml version="1.0" encoding="iso-8859-1"?>
<!-- Generator: Adobe Illustrator 19.0.0, SVG Export Plug-In . SVG Version: 6.00 Build 0)  -->
<svg xmlns="http://www.w3.org/2000/svg" xmlns:xlink="http://www.w3.org/1999/xlink" version="1.1" id="Layer_1" x="0px" y="0px" viewBox="0 0 512.009 512.009" style="enable-background:new 0 0 512.009 512.009;" xml:space="preserve" width="512" height="512">
<g>
	<g>
		<polygon style="fill:#A49EA6;" points="275.77,397.536 238.738,416.054 195.7,464.69 221.221,484.597 254.25,464.69     297.289,416.054   "/>
		<path style="fill:#E0D8E3;" d="M300.99,350.698l-102.268,28.32l9.685,18.623c5.885,11.314,17.578,18.413,30.331,18.413h124.504    c12.753,0,24.446-7.098,30.331-18.413l9.685-18.623L300.99,350.698z"/>
		<g>
			<path style="fill:#E0D8E3;" d="M338.865,314.281l-30.149-15.075l32.745-65.49c1.051-2.101,2.528-3.959,4.339-5.455l52.007-42.973     l21.472,25.985l-49.262,40.704L338.865,314.281z"/>
		</g>
		<path style="fill:#E6676C;" d="M169.368,82.177l-16.867-46.866c-5.375-14.935-21.84-22.685-36.775-17.31l-10.813,3.892    l36.331,100.951l10.813-3.891C166.993,113.577,174.743,97.112,169.368,82.177z"/>
		<path style="fill:#E6676C;" d="M216.749,213.832l-18.985-52.753c-5.375-14.935-21.84-22.685-36.775-17.31l-10.813,3.892    l38.45,106.838l10.813-3.891C214.374,245.231,222.124,228.767,216.749,213.832z"/>
		<path style="fill:#FC7176;" d="M403.258,281.27H205.195v0L111.052,19.683C107.61,10.118,97.065,5.154,87.5,8.597L49.644,22.221    c-9.565,3.442-14.529,13.988-11.087,23.553l106.308,295.389c8.174,22.713,29.718,37.856,53.857,37.856h204.536    c13.557,0,24.547-10.99,24.547-24.547v-48.655C427.804,292.26,416.814,281.27,403.258,281.27z"/>
		<path style="fill:#A49EA6;" d="M419.279,211.272l-21.472-25.984l-45.904,37.93c2.578,1.605,5.129,3.246,7.616,4.95    c5.967,4.089,13.047,9.446,20.066,15.903L419.279,211.272z"/>
		<path style="fill:#FC7176;" d="M471.986,226.298c-27.497-44.674-71.786-72.254-96.108-84.868    c-9.097-4.718-20.281-0.504-24.067,9.019l-6.786,17.071c-3.268,8.219,0.155,17.603,7.977,21.732    c6.467,3.414,14.668,8.136,23.474,14.17c15.471,10.602,35.397,27.106,49.335,48.949c4.716,7.391,14.126,10.213,22.064,6.491    l16.658-7.811C473.889,246.663,477.402,235.097,471.986,226.298z"/>
		<path style="fill:#FC7176;" d="M418.6,485.48L418.6,485.48c-6.151-12.713-19.03-20.79-33.153-20.79h-241.57    c-14.123,0-27.002,8.076-33.152,20.79l0,0c-4.258,8.801,2.154,19.024,11.93,19.024H406.67    C416.447,504.504,422.858,494.28,418.6,485.48z"/>
	</g>
	<g>
		<path d="M379.352,134.776c-12.789-6.632-29.109-0.629-34.489,12.906l-6.786,17.07c-4.701,11.824,0.22,25.209,11.446,31.135    c4.743,2.504,9.409,5.206,13.978,8.041l-22.457,18.556c-2.632,2.175-4.742,4.827-6.27,7.882l-21.704,43.408H210.487l-6.139-17.057    c17.252-7.596,25.957-27.421,19.479-45.422l-18.985-52.753c-5.161-14.341-18.865-23.976-34.101-23.976    c-3.338,0-6.642,0.469-9.856,1.381l-3.917-10.885c17.252-7.596,25.957-27.421,19.479-45.421l-16.867-46.866    c-5.161-14.341-18.865-23.977-34.101-23.977c-3.702,0-7.363,0.57-10.905,1.69c-2.516-3.404-5.849-6.155-9.787-8.008    c-6.261-2.948-13.295-3.28-19.806-0.936c0,0-37.831,13.614-37.856,13.623c-13.264,4.773-20.381,19.876-15.604,33.149    l22.703,63.085c1.403,3.897,5.699,5.92,9.597,4.517c3.897-1.402,5.92-5.699,4.518-9.597c0,0-22.683-63.026-22.704-63.084    c-2.017-5.605,0.98-11.945,6.569-13.956c0,0,37.792-13.601,37.856-13.624c5.599-2.015,11.948,0.99,13.956,6.569l94.143,261.587    c1.071,2.977,3.894,4.96,7.057,4.96h198.063c9.399,0,17.046,7.647,17.046,17.046v48.655c0,9.399-7.647,17.046-17.046,17.046    h-45.224c-4.142,0-7.5,3.358-7.5,7.5s3.358,7.5,7.5,7.5h32.87l-3.985,7.663c-4.611,8.865-13.684,14.373-23.677,14.373h-65.953    h-58.551c-9.994,0-19.066-5.508-23.677-14.373l-3.985-7.663h117.017c4.142,0,7.5-3.358,7.5-7.5s-3.358-7.5-7.5-7.5H198.743    c-20.911,0-39.719-13.22-46.8-32.896L79.566,137.521c-1.402-3.898-5.699-5.92-9.597-4.518c-3.897,1.403-5.919,5.699-4.517,9.597    l72.376,201.106c8.689,24.144,30.945,40.812,56.27,42.642l7.675,14.758c4.892,9.407,13.004,16.383,22.594,19.897l-32.025,36.191    h-48.443c-16.887,0-32.549,9.822-39.904,25.023c-6.563,13.566,3.668,29.791,18.681,29.791c0,0,283.756,0,284.014,0    c15.053,0,25.24-16.235,18.682-29.791c-7.354-15.201-23.017-25.023-39.904-25.023H270.923l29.765-33.636h62.575    c15.61,0,29.781-8.603,36.984-22.452l7.768-14.936c15.432-2.296,27.31-15.633,27.31-31.694v-48.655    c0-17.67-14.376-32.046-32.046-32.046h-35.752l8.511-17.021l26.395-21.81c6.141,6.392,12.036,13.565,17.077,21.464    c6.645,10.413,20.363,14.502,31.571,9.247c0,0,16.649-7.807,16.658-7.811c13.197-6.188,18.318-23.027,10.656-35.474    C449.895,176.068,404.109,147.615,379.352,134.776z M170.741,149.567c8.929,0,16.961,5.648,19.986,14.056l18.985,52.752    c3.676,10.214-0.984,21.435-10.461,26.18l-33.269-92.443C167.546,149.75,169.138,149.567,170.741,149.567z M125.478,23.799    c8.929,0,16.961,5.648,19.987,14.056l16.866,46.866c3.676,10.214-0.984,21.436-10.461,26.18L120.72,24.344    C122.283,23.982,123.875,23.799,125.478,23.799z M411.871,488.754c1.833,3.794-1.006,8.255-5.18,8.255c0,0-283.279,0-284.013,0    c-4.187,0-6.998-4.5-5.18-8.258c4.865-10.058,15.229-16.556,26.401-16.556h241.569    C396.641,472.195,407.004,478.693,411.871,488.754z M250.893,457.195h-38.521l29.765-33.636h38.521L250.893,457.195z     M365.261,246.2c-0.806,0.666-1.463,1.493-1.931,2.427l-12.574,25.148H329.84l18.35-36.7c0.587-1.174,1.397-2.192,2.408-3.028    l25.928-21.424c5.177,3.719,10.17,7.703,14.965,11.902L365.261,246.2z M466.611,238.125c-0.781,2.609-2.613,4.906-5.241,6.138    c0,0-16.642,7.803-16.658,7.811c-4.496,2.108-9.906,0.421-12.558-3.734c-6.958-10.904-15.324-20.485-23.818-28.684    c-8.642-8.342-17.868-16.095-27.95-22.653c-0.01-0.007-0.022-0.011-0.032-0.018c-7.624-5.203-15.636-10.037-23.83-14.362    c-4.434-2.341-6.373-7.641-4.509-12.329c0,0,6.772-17.035,6.786-17.071c2.113-5.315,8.561-7.768,13.645-5.132    c23.378,12.125,66.57,38.918,93.173,82.141C467.13,232.687,467.38,235.557,466.611,238.125z"/>
	</g>
</g>















</svg>
