<?xml version="1.0"?>
<svg xmlns="http://www.w3.org/2000/svg" id="Layer_3" enable-background="new 0 0 64 64" height="512px" viewBox="0 0 64 64" width="512px" class=""><g><g><path d="m35 14v1.085c0 1.809.949 3.485 2.5 4.415 1.551.931 2.5 2.607 2.5 4.415v32.085c0 3.314-2.686 6-6 6h-26c-3.314 0-6-2.686-6-6v-32.085c0-1.809.949-3.485 2.5-4.415 1.551-.931 2.5-2.607 2.5-4.415v-1.085" fill="#cbc3b6"
    class=""/><path d="m7 15.085c0 1.809-.949 3.485-2.5 4.415s-2.5 2.607-2.5 4.415v28.413c14.117-3.842 24.5-16.744 24.5-32.078 0-2.137-.21-4.225-.595-6.25h-18.905z" fill="#e7e4dd"
    class="" style="fill:#E7E4DD"/><path d="m2 29h38v24h-38z" fill="#c16b3f" class="" style="fill:#065AB9" /><path d="m2 52.328c11.328-3.083 20.245-12 23.328-23.328h-23.328z" fill="#e39854"
    class="" style="fill:#A4C9F3" /><circle cx="51" cy="47" fill="#c1c8d1" r="11" class=""/><path d="m24.114 49.447c-.971.358-2.019.553-3.114.553-4.971 0-9-4.029-9-9s4.029-9 9-9 9 4.029 9 9" fill="#e7e4dd"
    class="" style="fill:#E7E4DD"/><path d="m37 14h-32c-1.105 0-2-.895-2-2v-8c0-1.105.895-2 2-2h32c1.105 0 2 .895 2 2v8c0 1.105-.895 2-2 2z" fill="#c16b3f"
    class="" style="fill:#065AB9" /><g><path d="m6 4.999h1.999v5.999h-1.999z" fill="#e39854" class="" style="fill:#A4C9F3" /></g><g><path d="m10 4.999h1.999v5.999h-1.999z" fill="#e39854"
    class="" style="fill:#A4C9F3" /></g><g><path d="m14 4.999h1.999v5.999h-1.999z" fill="#e39854"
    class="" style="fill:#A4C9F3" /></g><g><path d="m18 4.999h1.999v5.999h-1.999z" fill="#e39854"
    class="" style="fill:#A4C9F3" /></g><g><path d="m22 4.999h1.999v5.999h-1.999z" fill="#e39854"
    class="" style="fill:#A4C9F3" /></g><g><path d="m26 4.999h1.999v5.999h-1.999z" fill="#e39854"
    class="" style="fill:#A4C9F3" /></g><g><path d="m30 4.999h1.999v5.999h-1.999z" fill="#e39854"
    class="" style="fill:#A4C9F3" /></g><g><path d="m34 4.999h1.999v5.999h-1.999z" fill="#e39854"
    class="" style="fill:#A4C9F3" /></g><circle cx="35" cy="51" fill="#a8b0bc" r="11" class=""/><g><path d="m49.999 38.999h1.999v15.999h-1.999z" fill="#a8b0bc"
    class=""/></g><g><path d="m34 42.999h1.999v15.999h-1.999z" fill="#c1c8d1" class=""/></g><path d="m27 39h-4v-4h-4v4h-4v4h4v4h4v-4h4z" fill="#c66b60"
    class="active-path" style="fill:#C66B60"/><path d="m23 35h-4v4h-4v4h2.487c2.199-2.342 4.062-5 5.513-7.903z" fill="#e47c6e"
    class="" style="fill:#e47c6e" /></g></g> </svg>
