<?xml version="1.0"?>
<svg xmlns="http://www.w3.org/2000/svg" id="Layer_1" enable-background="new 0 0 128 128" height="512px" viewBox="0 0 128 128" width="512px" class=""><g><g><g fill="#e6e7e8"><path d="m116.563 24.78h-34.062c-3.425 0-6.212 2.787-6.212 6.212v21.423c0 3.425 2.787 6.212 6.212 6.212h11.213v7.767c0 .394.23.75.589.912.132.059.271.088.411.088.239 0 .476-.086.662-.251l9.639-8.516h11.548c3.425 0 6.212-2.787 6.212-6.212v-21.423c0-3.425-2.787-6.212-6.212-6.212z"
    class=""/><path d="m115.461 105.851c-.293-.506-.675-.936-1.103-1.308 1.354-4.142 2.084-8.508 1.583-12.707 1.263-.309 2.206-1.443 2.206-2.8v-.864c0-1.594-1.297-2.891-2.891-2.891h-11.566l2.827-6.48.107.061c.397.229.837.345 1.283.345.228 0 .457-.03.683-.092.668-.182 1.225-.611 1.569-1.213l.36-.629c.709-1.239.278-2.825-.96-3.535l-8.927-5.111c-.6-.346-1.297-.435-1.966-.253-.668.182-1.225.611-1.569 1.213l-.36.629c-.709 1.239-.278 2.825.96 3.535l.107.062-8.342 11.469h-13.014c-4.558-7.733-12.475-13.255-21.732-14.55 6.334-3.086 11.086-8.925 12.7-15.95.3.083.612.129.934.129 2.45 0 4.369-2.528 4.369-5.757 0-2.75-1.395-4.986-3.323-5.59v-18.012c0-4.041-2.813-7.417-6.586-8.297.51-.504.968-1.104 1.289-1.823 1.813-4.063-1.844-7.103-2.661-7.103-.745 0-.484 1.353-3.214 3.165-2.739 1.818-5.25 2.027-5.25 2.027s-7.562-5.193-15.979-3.777c-6.04 1.017-10.563 5.583-12.645 8.088-2.906 1.359-4.923 4.301-4.923 7.72v18.012c-1.928.604-3.323 2.84-3.323 5.59 0 3.229 1.919 5.757 4.369 5.757.322 0 .634-.046.934-.129 1.614 7.024 6.365 12.864 12.7 15.95-14.604 2.041-25.882 14.607-25.882 29.764v20.173c0 1.654 1.346 3 3 3h99.894c1.049 0 2.024-.318 2.841-.856.452.293.939.536 1.475.679.446.119.898.179 1.349.179.899 0 1.787-.236 2.587-.699 2.474-1.431 3.324-4.608 1.895-7.085z"
    class=""/></g><g><g><g><g><path d="m71.275 116.148v-1.151c0-1.392 1.129-2.521 2.521-2.521h.631c-4.954-8.091-8.625-17.458-7.226-25.549h-.441c-1.044 0-1.891-.847-1.891-1.891v-.863c0-1.044.847-1.891 1.891-1.891h5.121c-4.979-8.858-14.461-14.847-25.346-14.847h-12.248c-16.05 0-29.062 13.011-29.062 29.062v20.172c0 1.105.895 2 2 2h66.373c.034 0 .066-.008.1-.01-1.346-.053-2.423-1.153-2.423-2.511z" fill="#d4fbff"
    class="" style="fill:#D7D7FF" /></g><path d="m47.195 67.451c-.22-.005-.438-.017-.659-.017h-12.249c-.222 0-.44.012-.661.017v51.089l-.005-.016v.145h13.58z" fill="#0089ef"
    class=""/></g><path d="m40.412 68.104c-3.031 0-5.921-.601-8.563-1.683v.147l8.563 5.456 8.571-5.456v-.15c-2.644 1.083-5.537 1.686-8.571 1.686z" fill="#fff"
    class="" style="fill:#FFDECC"/><g fill="#fff"><g><ellipse cx="64.35" cy="45.155" rx="3.369" ry="4.757"
    class="" style="fill:#FFDECC" /><path d="m17.803 45.495v-3.429c0-.417.026-.832.043-1.248-.42-.266-.883-.421-1.373-.421-1.861 0-3.369 2.13-3.369 4.757s1.508 4.757 3.369 4.757c.603 0 1.161-.242 1.651-.634-.207-1.23-.321-2.492-.321-3.782z"
    class="" style="fill:#FFDECC" /></g><path d="m58.564 26.171c-1.384-2.274-3.302-4.11-5.535-5.394-1.867 1.519-6.803 2.607-12.617 2.607s-10.75-1.088-12.617-2.607c-2.234 1.284-4.152 3.12-5.535 5.394-2.914 4.79-4.456 10.288-4.456 15.895v3.429c0 12.486 10.122 22.608 22.608 22.608s22.608-10.122 22.608-22.608v-3.429c0-5.607-1.542-11.105-4.456-15.895z"
    class="" style="fill:#FFDECC"/></g><g fill="#6dc9f7"><path d="m33.626 67.68v50.86l-8.19-26.93c-.32-.78-.13-1.67.49-2.24l2.23-3.01c.78-.73.85-1.93.18-2.74l-2.32-4.02c-.64-.77-.61-1.89.07-2.63l7.53-9.28z"
    class="active-path" style="fill:#94BEE9" /><path d="m55.386 91.61-8.19 26.93v-50.86l.01.01 7.54 9.28c.67.74.7 1.86.07 2.63l-2.33 4.02c-.67.81-.59 2.01.18 2.74l2.24 3.01c.61.57.8 1.46.48 2.24z"
    class="active-path" style="fill:#94BEE9" /></g><g fill="#6dc9f7"><path d="m33.627 67.68v.02l-.01-.01z"
    class="active-path" style="fill:#94BEE9" /><path d="m47.207 67.69-.01.01v-.02z" class="active-path" style="fill:#94BEE9" /></g><g fill="#fa759e"><path d="m40.412 72.022h-.001.001l-3.718 3.992 1.801 5.071h3.833l1.801-5.071z"
    class="" style="fill:#75A7DB" /><path d="m43.547 118.668h-6.271l1.219-37.583h3.833z" class="" style="fill:#75A7DB" /></g></g><g><g><path d="m98.163 82.281 3.884-8.901-6.777-3.882-9.298 12.783z" fill="#6dc9f7"
    class="active-path" style="fill:#94BEE9" /><path d="m103.122 73.995-8.926-5.112c-.762-.436-1.026-1.408-.589-2.17l.361-.63c.436-.762 1.408-1.026 2.17-.589l8.926 5.112c.762.436 1.026 1.408.589 2.17l-.361.63c-.437.762-1.408 1.026-2.17.589z" fill="#0089ef"
    class=""/></g><g><g><path d="m95.524 110.298h9.342c.108-.191.216-.381.323-.573l-1.841-3.185c-1.157-2.001-.472-4.562 1.529-5.719 1.387-.802 3.032-.702 4.303.09 1.644-4.765 2.399-9.565 1.635-13.985-14.538 0-29.076 0-43.614 0-1.399 8.091 2.272 17.458 7.226 25.549h17.446c.713-1.292 2.072-2.177 3.651-2.177z" fill="#ffd7e5"
    class="" style="fill:#FFDECC" /><path d="m70.201 86.927c-1 0-2 0-3 0-1.399 8.091 2.272 17.458 7.226 25.549h3c-4.954-8.091-8.624-17.459-7.226-25.549z" fill="#fff"
    class="" style="fill:#FFDECC"/></g><g fill="#fa759e"><path d="m111.256 86.927h-44.496c-1.044 0-1.891-.847-1.891-1.891v-.863c0-1.044.847-1.891 1.891-1.891h44.495c1.044 0 1.891.847 1.891 1.891v.863c.001 1.044-.846 1.891-1.89 1.891z"
    class="" style="fill:#75A7DB" /><path d="m91.339 114.483c0-.732.204-1.409.534-2.008h-18.077c-1.392 0-2.521 1.129-2.521 2.521v1.151c0 1.392 1.129 2.521 2.521 2.521h21.728c-2.311.001-4.185-1.873-4.185-4.185z"
    class="" style="fill:#75A7DB" /></g></g></g><path d="m112.563 21.78h-34.061c-2.879 0-5.212 2.334-5.212 5.212v21.422c0 2.879 2.334 5.212 5.212 5.212h12.212v8.766l9.923-8.766h11.926c2.879 0 5.212-2.334 5.212-5.212v-21.421c0-2.879-2.334-5.213-5.212-5.213z" fill="#fa759e"
    class="" style="fill:#75A7DB" /><g><path d="m87.533 32.376c0-1.013.325-2.04.975-3.08.651-1.04 1.6-1.901 2.848-2.584s2.704-1.024 4.368-1.024c1.546 0 2.912.285 4.096.856s2.099 1.347 2.744 2.328c.645.982.968 2.048.968 3.2 0 .906-.184 1.701-.552 2.384s-.805 1.272-1.312 1.768-1.416 1.331-2.728 2.504c-.363.331-.653.622-.871.872-.219.251-.382.48-.488.688-.107.208-.189.415-.248.624-.059.208-.146.574-.264 1.096-.202 1.109-.837 1.664-1.904 1.664-.555 0-1.022-.181-1.4-.544-.379-.363-.568-.901-.568-1.616 0-.896.138-1.673.416-2.328.277-.656.645-1.232 1.104-1.727.458-.496 1.077-1.086 1.856-1.768.683-.597 1.176-1.048 1.48-1.352s.56-.642.768-1.016c.208-.373.312-.779.312-1.216 0-.853-.318-1.573-.952-2.16s-1.453-.88-2.456-.88c-1.174 0-2.038.296-2.592.888s-1.024 1.464-1.408 2.616c-.363 1.205-1.051 1.808-2.064 1.808-.598 0-1.102-.211-1.512-.632s-.616-.878-.616-1.369zm7.807 17.535c-.651 0-1.219-.211-1.704-.632s-.728-1.01-.728-1.768c0-.672.235-1.237.705-1.696.469-.458 1.045-.688 1.728-.688.672 0 1.237.23 1.696.688.458.458.688 1.023.688 1.696 0 .747-.24 1.334-.719 1.76-.482.427-1.037.64-1.666.64z" fill="#fff"
    class="" style="fill:#FFDECC"/></g><g><g><path d="m116.398 112.388-5.802-10.038c-1.157-2.001-3.717-2.686-5.719-1.529-2.001 1.157-2.686 3.717-1.529 5.719l2.172 3.758h1.598c2.312 0 4.186 1.874 4.186 4.186 0 1.215-.526 2.3-1.353 3.064 1.312 1.207 3.292 1.498 4.917.559 2.002-1.157 2.686-3.718 1.53-5.719z" fill="#fa759e"
    class="" style="fill:#75A7DB" /><path d="m116.398 112.388-2.897-5.011-5.291 3.083c1.779.483 3.094 2.092 3.094 4.024 0 1.215-.526 2.299-1.352 3.064 1.312 1.207 3.292 1.498 4.917.559 2.001-1.158 2.686-3.718 1.529-5.719z" fill="#0089ef"
    class=""/></g><g><path d="m107.118 118.669h-11.594c-2.312 0-4.186-1.874-4.186-4.186 0-2.312 1.874-4.186 4.186-4.186h11.594c2.312 0 4.186 1.874 4.186 4.186 0 2.312-1.874 4.186-4.186 4.186z" fill="#0089ef"
    class=""/><path d="m107.118 110.298h-5.788l.029 8.371h5.759c2.312 0 4.186-1.874 4.186-4.186 0-2.311-1.874-4.185-4.186-4.185z" fill="#fa759e"
    class="" style="fill:#75A7DB" /><g fill="#3a2c60"><path d="m22.201 111.28c.553 0 1-.447 1-1v-6.125c0-.553-.447-1-1-1s-1 .447-1 1v6.125c0 .553.447 1 1 1z"
    class=""/><path d="m30.437 40.07c-1.249 0-2.261 1.012-2.261 2.261s1.012 2.261 2.261 2.261 2.261-1.012 2.261-2.261-1.012-2.261-2.261-2.261z"
    class=""/><path d="m50.386 40.07c-1.249 0-2.261 1.012-2.261 2.261s1.012 2.261 2.261 2.261 2.261-1.012 2.261-2.261-1.013-2.261-2.261-2.261z"
    class=""/><path d="m40.411 53.394c1.969 0 3.571-1.603 3.571-3.571v-1.507c0-.553-.447-1-1-1s-1 .447-1 1v1.507c0 .866-.705 1.571-1.571 1.571s-1.57-.705-1.57-1.571v-1.507c0-.553-.447-1-1-1s-1 .447-1 1v1.507c0 1.968 1.601 3.571 3.57 3.571z"
    class=""/><path d="m48.665 37.952 4.428.771c.059.01.116.015.173.015.478 0 .899-.343.984-.828.095-.544-.27-1.063-.813-1.157l-4.428-.771c-.551-.091-1.062.271-1.157.813-.095.544.269 1.062.813 1.157z"
    class=""/><path d="m31.814 35.981-4.428.771c-.544.095-.908.613-.813 1.157.085.485.507.828.984.828.057 0 .114-.005.173-.015l4.428-.771c.544-.095.908-.613.813-1.157-.094-.542-.603-.904-1.157-.813z"
    class=""/><path d="m46.218 56.592c.332-.438.246-1.06-.19-1.395-.435-.333-1.062-.254-1.4.183-.061.078-1.524 1.923-4.216 1.923-2.747 0-4.138-1.818-4.201-1.904-.325-.442-.946-.543-1.393-.221-.448.322-.549.948-.226 1.396.08.111 2.013 2.729 5.819 2.729 3.711 0 5.723-2.6 5.807-2.711z"
    class=""/><path d="m92.294 102.887 3.224-3.859c.195-.228.293-.478.293-.749 0-.315-.122-.589-.367-.822-.244-.233-.518-.35-.822-.35-.325 0-.608.142-.846.424l-2.948 3.599-1.758-2.123c.469-.157.874-.385 1.212-.692.694-.63 1.042-1.509 1.042-2.638s-.348-2.008-1.042-2.638c-.695-.629-1.667-.944-2.915-.944h-4.087c-.38 0-.673.104-.879.309-.206.207-.31.5-.31.879v9.118c0 .391.114.7.342.928.228.229.537.343.928.343s.7-.114.928-.343c.228-.228.342-.537.342-.928v-3.143h1.682l3.032 3.63-3.338 3.973c-.195.228-.293.478-.293.749 0 .315.122.589.366.822.244.234.518.35.823.35.315 0 .591-.136.831-.407l3.093-3.745 3.062 3.745c.228.271.505.407.83.407.315 0 .595-.117.839-.35s.366-.507.366-.822c0-.261-.103-.511-.31-.749zm-5.252-5.551h-2.41v-3.305h2.41c1.27 0 1.906.554 1.906 1.661-.001 1.097-.636 1.644-1.906 1.644z"
    class=""/><path d="m112.562 20.78h-34.06c-3.426 0-6.213 2.787-6.213 6.212v21.423c0 3.425 2.787 6.212 6.213 6.212h11.212v7.767c0 .394.23.75.589.911.132.06.271.089.411.089.239 0 .476-.086.662-.251l9.64-8.516h11.547c3.426 0 6.213-2.787 6.213-6.212v-21.423c-.001-3.425-2.788-6.212-6.214-6.212zm4.213 27.635c0 2.322-1.89 4.212-4.213 4.212h-11.926c-.244 0-.479.089-.662.251l-8.261 7.298v-6.549c0-.553-.447-1-1-1h-12.211c-2.323 0-4.213-1.89-4.213-4.212v-21.423c0-2.322 1.89-4.212 4.213-4.212h34.061c2.323 0 4.213 1.89 4.213 4.212v21.423z"
    class=""/><path d="m111.462 101.851c-.295-.511-.682-.945-1.116-1.319 1.353-4.14 2.089-8.498 1.589-12.694 1.266-.307 2.212-1.443 2.212-2.802v-.864c0-1.594-1.297-2.891-2.891-2.891h-11.565l2.827-6.479.107.061c.397.228.838.344 1.283.344.228 0 .457-.03.683-.092.667-.182 1.224-.611 1.567-1.211l.362-.632c.708-1.239.276-2.824-.961-3.534l-8.927-5.111c-.6-.346-1.297-.435-1.966-.253-.666.182-1.223.611-1.566 1.211l-.362.632c-.708 1.239-.276 2.824.961 3.534l.107.062-8.342 11.469h-13.027c-4.558-7.729-12.462-13.258-21.715-14.553 6.332-3.087 11.081-8.926 12.694-15.949.3.084.612.132.934.132 2.45 0 4.369-2.528 4.369-5.757 0-2.75-1.395-4.986-3.322-5.589v-18.014c0-4.041-2.813-7.417-6.586-8.297.51-.504.968-1.104 1.289-1.823 1.813-4.063-1.844-7.103-2.661-7.103-.745 0-.484 1.353-3.214 3.165-2.739 1.818-5.25 2.027-5.25 2.027s-7.563-5.193-15.979-3.777c-6.04 1.017-10.563 5.583-12.645 8.088-2.906 1.359-4.923 4.301-4.923 7.72v18.013c-1.927.604-3.322 2.84-3.322 5.589 0 3.229 1.919 5.757 4.369 5.757.322 0 .633-.047.933-.132 1.615 7.032 6.373 12.876 12.716 15.96-14.612 2.036-25.898 14.595-25.898 29.757v20.173c0 1.654 1.346 3 3 3h99.893c1.05 0 2.024-.318 2.841-.856.448.298.938.536 1.475.68.445.119.897.179 1.348.179.899 0 1.787-.236 2.586-.698 2.477-1.432 3.326-4.609 1.896-7.085zm.674 5.163-4.082 2.379c-.305-.056-.615-.095-.936-.095h-1.021l-1.884-3.258c-.88-1.521-.357-3.474 1.164-4.354.491-.283 1.036-.429 1.589-.429.275 0 .554.036.827.109.822.22 1.51.747 1.936 1.483zm-3.824-7.578c-1.338-.357-2.736-.174-3.935.52-2.477 1.432-3.326 4.609-1.896 7.086l1.305 2.257h-8.262c-1.736 0-3.266.865-4.208 2.178h-16.322c-3.844-6.383-7.954-15.404-6.915-23.549h41.857c.484 3.798-.149 7.783-1.359 11.608-.09-.03-.173-.076-.265-.1zm-12.788 18.233c-1.757 0-3.186-1.429-3.186-3.186s1.429-3.186 3.186-3.186h4.809l.022 6.371h-4.831zm-23.249-1.522v-1.15c0-.839.683-1.521 1.521-1.521h16.644c-.065.326-.102.663-.102 1.008 0 1.207.431 2.304 1.125 3.186h-17.666c-.839-.001-1.522-.684-1.522-1.523zm39.871-31.975v.864c0 .491-.399.891-.891.891h-44.494c-.491 0-.892-.399-.892-.891v-.864c0-.491.4-.891.892-.891h44.495c.491 0 .89.4.89.891zm-17.673-16.961.361-.631c.079-.137.205-.234.357-.275.051-.015.104-.021.155-.021.102 0 .201.026.292.079l8.927 5.111c.282.162.38.523.22.805l-.361.631c-.079.137-.205.234-.357.275-.151.043-.311.021-.447-.057 0-.001 0-.001 0-.001l-8.927-5.111c-.283-.162-.381-.524-.22-.805zm1.078 3.601 5.22 2.99-3.263 7.479h-9.572zm-28.79 10.469c-1.595 0-2.892 1.297-2.892 2.891v.864c0 1.358.944 2.492 2.209 2.801-.992 8.299 2.864 17.25 6.696 23.808-1.441.441-2.499 1.769-2.499 3.352v1.15c0 .547.136 1.059.36 1.521h-11.013v-27.4c0-5.339 3.042-10.155 7.802-12.476.975 1.089 1.861 2.258 2.659 3.489zm-37.597 1.774-2.281-3.955c-.028-.049-.062-.096-.098-.14-.322-.387-.307-.939.077-1.36l5.764-7.103v41.321l-6.265-20.588c-.163-.397-.068-.839.242-1.124.046-.043.089-.09.127-.141l2.181-2.944c1.07-1.069 1.18-2.776.253-3.966zm22.746 3.965 2.194 2.947c.035.049.075.094.12.135.307.287.4.73.236 1.13-.012.029-.021.059-.031.088l-6.233 20.496v-41.323l5.809 7.147c.336.371.353.941.038 1.325-.034.042-.064.086-.092.133l-2.293 3.955c-.92 1.185-.811 2.892.252 3.967zm-17.284-10.252v-7.245l4.237 2.695-2.9 3.114zm8.822-7.866-3.033 1.932-3.037-1.932c.994.128 2.005.202 3.034.202s2.041-.074 3.036-.202zm-3.036 4.588 2.572 2.761-1.361 3.834h-2.421l-1.361-3.834zm-.949 8.595h1.897l1.153 35.583h-4.203zm2.502-9.867 4.231-2.695v7.245zm-7.339 7.484 1.677-1.801 1.187 3.342-1.181 36.426h-1.683zm8.707 1.541 1.187-3.342 1.676 1.802v37.965h-1.682zm12.998 10.698c.435-1.116.167-2.396-.671-3.233l-2.192-2.944c-.034-.046-.072-.089-.113-.129-.389-.368-.432-.974-.098-1.377.035-.043.067-.088.095-.137l2.294-3.958c.879-1.142.817-2.786-.123-3.824l-6.306-7.762c6.476.618 12.312 3.44 16.752 7.715-5.111 2.755-8.346 8.089-8.346 13.977v27.4h-9.115zm10.388-46.787c0 2.036-1.085 3.757-2.369 3.757-.195 0-.382-.054-.564-.131.15-1.074.234-2.17.234-3.285v-3.429c0-.208-.017-.415-.021-.623.115-.029.232-.045.351-.045 1.284 0 2.369 1.72 2.369 3.756zm-50.245 3.757c-1.284 0-2.369-1.721-2.369-3.757s1.085-3.756 2.369-3.756c.119 0 .236.016.35.045-.004.208-.021.415-.021.623v3.429c0 1.115.083 2.211.234 3.286-.182.076-.369.13-.563.13zm2.329-3.416v-3.429c0-5.424 1.49-10.74 4.311-15.376 1.158-1.902 2.755-3.524 4.641-4.721 2.395 1.48 7.218 2.414 12.657 2.414 5.44 0 10.264-.934 12.658-2.414 1.886 1.196 3.482 2.818 4.641 4.721 2.819 4.635 4.31 9.951 4.31 15.376v3.429c0 11.915-9.693 21.608-21.608 21.608s-21.61-9.693-21.61-21.608zm-12.577 71.174v-20.173c0-7.181 2.714-13.738 7.167-18.707 4.763 2.32 7.808 7.138 7.808 12.479v10.324c0 .553.447 1 1 1s1-.447 1-1v-10.323c0-5.891-3.238-11.228-8.354-13.981 4.445-4.277 10.288-7.108 16.772-7.723l-6.269 7.728c-.991 1.08-1.054 2.728-.161 3.873l2.281 3.954c.028.049.061.095.097.138.336.406.295 1.009-.094 1.372-.044.042-.084.087-.12.135l-2.179 2.941c-.859.848-1.127 2.151-.694 3.195l7.836 25.768h-9.114v-3.514c0-.553-.447-1-1-1s-1 .447-1 1v3.514h-13.976c-.552 0-1-.448-1-1zm96.13 1-.022-6.371h4.785c1.757 0 3.186 1.429 3.186 3.186s-1.429 3.186-3.186 3.186h-4.763zm12.011-.428c-.735.425-1.594.541-2.416.319-.184-.049-.349-.133-.516-.214.547-.822.868-1.805.868-2.864 0-1.661-.799-3.126-2.018-4.076l2.851-1.662 2.394 4.142c.881 1.523.359 3.475-1.163 4.355z"
    class=""/></g></g></g></g></g></g> </svg>
