<?xml version="1.0"?>
<svg xmlns="http://www.w3.org/2000/svg" height="512px" viewBox="0 0 480 480" width="512px" class=""><g><path d="m32 8h416v272h-416zm0 0" fill="#e4f2f9" /><path d="m40 280h400c17.671875 0 32 14.328125 32 32v160h-464v-160c0-17.671875 14.328125-32 32-32zm0 0" fill="#ffd782"
    class="active-path" style="fill:#194C80" /><path d="m312 80c0 39.765625-32.234375 72-72 72s-72-32.234375-72-72 32.234375-72 72-72 72 32.234375 72 72zm0 0" fill="#f6bf9b" /><path d="m216 152h48c35.347656 0 64 28.652344 64 64v64h-176v-64c0-35.347656 28.652344-64 64-64zm0 0" fill="#87cee9" /><path d="m216 152v128h-64v-64c0-35.347656 28.652344-64 64-64zm0 0" fill="#fff" /><path d="m328 280h-64v-128c35.347656 0 64 28.652344 64 64zm0 0" fill="#fff" /><path d="m216 200h48v80h-48zm0 0" fill="#cfdfe8" /><path d="m424 160h-96c-4.417969 0-8-3.582031-8-8s3.582031-8 8-8h96c4.417969 0 8 3.582031 8 8s-3.582031 8-8 8zm0 0" fill="#c1cfdb"
    class=""/><g fill="#7d8d9c"><path d="m64 120h32v32h-32zm0 0" /><path d="m104 48h32v32h-32zm0 0" /><path d="m88 184h32v32h-32zm0 0" /><path d="m360 56h32v32h-32zm0 0" /><path d="m88 248h32v32h-32zm0 0" /><path d="m360 248h32v32h-32zm0 0" /><path d="m360 184h32v32h-32zm0 0" /></g><path d="m256 360v-32h-32v32h-32v32h32v32h32v-32h32v-32zm0 0" fill="#e9686a" /><path d="m160 96h-96c-4.417969 0-8-3.582031-8-8s3.582031-8 8-8h96c4.417969 0 8 3.582031 8 8s-3.582031 8-8 8zm0 0" fill="#c1cfdb"
    class=""/><path d="m144 160h-80c-4.417969 0-8-3.582031-8-8s3.582031-8 8-8h80c4.417969 0 8 3.582031 8 8s-3.582031 8-8 8zm0 0" fill="#c1cfdb"
    class=""/><path d="m416 96h-96c-4.417969 0-8-3.582031-8-8s3.582031-8 8-8h96c4.417969 0 8 3.582031 8 8s-3.582031 8-8 8zm0 0" fill="#c1cfdb"
    class=""/><path d="m144 224h-80c-4.417969 0-8-3.582031-8-8s3.582031-8 8-8h80c4.417969 0 8 3.582031 8 8s-3.582031 8-8 8zm0 0" fill="#c1cfdb"
    class=""/><path d="m416 224h-80c-4.417969 0-8-3.582031-8-8s3.582031-8 8-8h80c4.417969 0 8 3.582031 8 8s-3.582031 8-8 8zm0 0" fill="#c1cfdb"
    class=""/><path d="m344 120h32v32h-32zm0 0" fill="#7d8d9c" /><path d="m456 275.390625v-267.390625c0-4.417969-3.582031-8-8-8h-416c-4.417969 0-8 3.582031-8 8v267.390625c-14.558594 6.355469-23.9804688 20.722656-24 36.609375v160c0 4.417969 3.582031 8 8 8h464c4.417969 0 8-3.582031 8-8v-160c-.019531-15.886719-9.441406-30.253906-24-36.609375zm-16-3.390625h-40v-24c0-4.417969-3.582031-8-8-8h-32c-4.417969 0-8 3.582031-8 8v24h-16v-48h80c4.417969 0 8-3.582031 8-8s-3.582031-8-8-8h-16v-24c0-4.417969-3.582031-8-8-8h-32c-4.417969 0-8 3.582031-8 8v24h-16c-.152344.023438-.304688.054688-.457031.097656-3.253907-29-23.664063-53.175781-51.703125-61.25 5.25-3.425781 10.082031-7.453125 14.398437-12 10.277344-10.894531 17.265625-24.472656 20.160157-39.167968.523437.164062 1.058593.269531 1.601562.320312h96c4.417969 0 8-3.582031 8-8s-3.582031-8-8-8h-16v-24c0-4.417969-3.582031-8-8-8h-32c-4.417969 0-8 3.582031-8 8v24h-32.078125c0-.800781.070313-1.601562.046875-2.441406-.78125-24.359375-12.644531-47.03125-32.214844-61.558594h152.246094zm-56 0h-16v-16h16zm-160 0v-64h32v64zm-64 0v-56c0-1.847656.105469-3.679688.28125-5.480469.054688-.597656.167969-1.175781.238281-1.765625.160157-1.203125.320313-2.402344.550781-3.570312.136719-.6875.3125-1.359375.472657-2.039063.25-1.046875.503906-2.097656.800781-3.128906.207031-.695313.457031-1.382813.695312-2.070313.328126-.976562.671876-1.945312 1.058594-2.898437.277344-.6875.582032-1.359375.886719-2.039063.414063-.910156.847656-1.824218 1.3125-2.710937.34375-.65625.695313-1.304687 1.0625-1.953125.496094-.863281 1.015625-1.71875 1.601563-2.558594.390624-.617187.800781-1.226562 1.214843-1.824218.585938-.800782 1.191407-1.640626 1.824219-2.402344.433594-.558594.863281-1.117188 1.320312-1.65625.679688-.796875 1.398438-1.597656 2.121094-2.328125.460938-.484375.910156-.980469 1.390625-1.453125.800781-.800782 1.648438-1.535156 2.503907-2.28125.441406-.382813.871093-.800782 1.328124-1.167969 1.097657-.894531 2.230469-1.726563 3.390626-2.535156.257812-.183594.488281-.382813.753906-.550781 1.429687-.972657 2.910156-1.875 4.4375-2.707032.386718-.214844.800781-.382812 1.195312-.589844 1.144532-.59375 2.292969-1.167968 3.488282-1.679687.589843-.257813 1.199218-.464844 1.789062-.699219 1.035156-.40625 2.066406-.796875 3.113281-1.140625.6875-.226562 1.390625-.402343 2.089844-.601562 1-.28125 2.007813-.550781 3.03125-.800781.742187-.167969 1.496094-.296876 2.253906-.429688.601563-.113281 1.21875-.195312 1.824219-.28125v111.34375zm78.0625-256h1.960938c35.273437.539062 63.511718 29.429688 63.242187 64.707031-.269531 35.277344-28.941406 63.734375-64.222656 63.734375-35.277344 0-63.953125-28.457031-64.222657-63.734375-.269531-35.277343 27.96875-64.167969 63.242188-64.707031zm-14.0625 144h32v32h-32zm48 40v-39.359375c.609375.085937 1.222656.167969 1.824219.28125.761719.132813 1.511719.261719 2.253906.429687 1.027344.222657 2.035156.496094 3.035156.800782.695313.199218 1.398438.375 2.085938.601562 1.046875.34375 2.082031.734375 3.113281 1.140625.589844.234375 1.199219.441407 1.792969.699219 1.191406.511719 2.34375 1.085938 3.488281 1.679688.390625.207031.796875.375 1.191406.589843 1.53125.832031 3.007813 1.734375 4.4375 2.703125.265625.167969.496094.371094.753906.554688 1.160157.800781 2.296876 1.597656 3.390626 2.535156.457031.367188.890624.800781 1.328124 1.167969.855469.742187 1.703126 1.488281 2.503907 2.28125.480469.46875.929687.964843 1.394531 1.453125.71875.761718 1.4375 1.53125 2.117188 2.328125.457031.539062.890624 1.097656 1.320312 1.65625.632812.800781 1.242188 1.601562 1.824219 2.402343.425781.597657.800781 1.207032 1.214843 1.824219.546876.839844 1.066407 1.695313 1.601563 2.558594.367187.648437.71875 1.296875 1.0625 1.953125.464844.886719.898437 1.796875 1.3125 2.710938.304687.679687.609375 1.351562.890625 2.039062.382812.953125.726562 1.921875 1.054688 2.898438.238281.6875.488281 1.375.695312 2.070312.304688 1.03125.558594 2.078125.800781 3.128906.160157.679688.335938 1.351563.472657 2.039063.230468 1.167969.390624 2.398437.550781 3.566406.074219.59375.183593 1.167969.242187 1.769531.175782 1.800782.277344 3.632813.277344 5.480469v56h-48.03125zm112 8h-16v-16h16zm0-128h-16v-16h16zm-344-64h152.089844c-3.703125 2.753906-7.164063 5.824219-10.347656 9.167969-13.992188 14.820312-21.746094 34.453125-21.664063 54.832031h-16.078125v-32c0-4.417969-3.582031-8-8-8h-32c-4.417969 0-8 3.582031-8 8v32h-32c-4.417969 0-8 3.582031-8 8s3.582031 8 8 8h96c.542969-.054688 1.078125-.164062 1.601562-.328125 4.183594 20.988281 16.601563 39.429687 34.476563 51.199219-28.011719 8.09375-48.398437 32.261718-51.652344 61.242187-.140625-.046875-.28125-.082031-.425781-.113281h-16v-24c0-4.417969-3.582031-8-8-8h-32c-4.417969 0-8 3.582031-8 8v24h-16c-4.417969 0-8 3.582031-8 8s3.582031 8 8 8h80v48h-16v-24c0-4.417969-3.582031-8-8-8h-32c-4.417969 0-8 3.582031-8 8v24h-40zm72 56v-16h16v16zm0 136h-16v-16h16zm0 64h-16v-16h16zm352 192h-448v-152c0-13.253906 10.746094-24 24-24h400c13.253906 0 24 10.746094 24 24zm0 0"
    class=""/><path d="m384 144v-24c0-4.417969-3.582031-8-8-8h-32c-4.417969 0-8 3.582031-8 8v24h-8c-4.417969 0-8 3.582031-8 8s3.582031 8 8 8h96c4.417969 0 8-3.582031 8-8s-3.582031-8-8-8zm-32 0v-16h16v16zm0 0"
    class=""/><path d="m64 160h80c4.417969 0 8-3.582031 8-8s-3.582031-8-8-8h-40v-24c0-4.417969-3.582031-8-8-8h-32c-4.417969 0-8 3.582031-8 8v32c0 4.417969 3.582031 8 8 8zm8-32h16v16h-16zm0 0"
    class=""/><path d="m288 352h-24v-24c0-4.417969-3.582031-8-8-8h-32c-4.417969 0-8 3.582031-8 8v24h-24c-4.417969 0-8 3.582031-8 8v32c0 4.417969 3.582031 8 8 8h24v24c0 4.417969 3.582031 8 8 8h32c4.417969 0 8-3.582031 8-8v-24h24c4.417969 0 8-3.582031 8-8v-32c0-4.417969-3.582031-8-8-8zm-8 32h-24c-4.417969 0-8 3.582031-8 8v24h-16v-24c0-4.417969-3.582031-8-8-8h-24v-16h24c4.417969 0 8-3.582031 8-8v-24h16v24c0 4.417969 3.582031 8 8 8h24zm0 0"
    class=""/></g> </svg>
