<svg id="Filled" height="512" viewBox="0 0 512 512" width="512" xmlns="http://www.w3.org/2000/svg"><path d="m176 64h200v384h-200z" fill="#d0d2d4"/><path d="m488 24a0 0 0 0 1 0 0v464a0 0 0 0 1 0 0 48 48 0 0 1 -48-48v-368a48 48 0 0 1 48-48z" fill="#67c5e0"/><path d="m24 168h272v224h-272z" fill="#7e8589"/><path d="m56 168a48 48 0 0 1 48-48h112a48 48 0 0 1 48 48z" fill="#f0dfce"/><path d="m200 64c0 22.091-17.909 56-40 56s-40-33.909-40-56a40 40 0 0 1 80 0z" fill="#f0dfce"/><path d="m192 328a32 32 0 0 1 -64 0z" fill="#7e8589"/><path d="m176 392v72a24 24 0 0 0 48 0v-72z" fill="#f0dfce"/><path d="m96 392v72a24 24 0 0 0 48 0v-72z" fill="#f0dfce"/><path d="m408.08 440h-.08a8.04 8.04 0 1 0 .08 0z"/><path d="m408.08 408h-.08a8.04 8.04 0 1 0 .08 0z"/><path d="m408.08 376h-.08a8.04 8.04 0 1 0 .08 0z"/><path d="m408.08 344h-.08a8.04 8.04 0 1 0 .08 0z"/><path d="m408.08 312h-.08a8.04 8.04 0 1 0 .08 0z"/><path d="m408.08 280h-.08a8.04 8.04 0 1 0 .08 0z"/><path d="m408.08 248h-.08a8.04 8.04 0 1 0 .08 0z"/><path d="m408.08 216h-.08a8.04 8.04 0 1 0 .08 0z"/><path d="m408.08 56h-.08a8.04 8.04 0 1 0 .08 0z"/><path d="m408.08 184h-.08a8.04 8.04 0 1 0 .08 0z"/><path d="m408.08 152h-.08a8.04 8.04 0 1 0 .08 0z"/><path d="m408.08 120h-.08a8.04 8.04 0 1 0 .08 0z"/><path d="m408.08 88h-.08a8.04 8.04 0 1 0 .08 0z"/><path d="m488 496a8 8 0 0 0 8-8v-464a8 8 0 0 0 -8-8 56.063 56.063 0 0 0 -56 56v368a56.063 56.063 0 0 0 56 56zm-40-424a40.071 40.071 0 0 1 32-39.2v446.4a40.071 40.071 0 0 1 -32-39.2z"/><path d="m170.645 239.989h-2.645v-24h.542c17.684-.041 41.555-.082 47.87 2.553a8 8 0 0 0 15.588-2.542 11.78 11.78 0 0 0 -3.585-8.483c-7.32-7.308-24.626-7.607-59.9-7.528h-.515a8 8 0 0 0 -16 0h-.51c-35.3-.081-52.583.221-59.905 7.528a11.78 11.78 0 0 0 -3.585 8.483 8 8 0 0 0 15.588 2.542c6.316-2.636 30.19-2.591 47.87-2.553h.542v24h-2.645c-45.659-.076-66.194.222-73.926 7.942a11.371 11.371 0 0 0 -3.429 8.069 8 8 0 0 0 15.423 2.989c7.466-3.086 37.515-3.047 61.907-3h2.67v24h-.51c-35.3-.08-52.583.221-59.905 7.528a11.78 11.78 0 0 0 -3.585 8.483 8 8 0 0 0 15.588 2.542c6.316-2.636 30.19-2.595 47.87-2.553h.542v24.011h-24a8 8 0 0 0 -8 8 40 40 0 0 0 80 0 8 8 0 0 0 -8-8h-24v-24.01h.542c17.684-.043 41.555-.082 47.87 2.553a8 8 0 0 0 15.588-2.543 11.78 11.78 0 0 0 -3.585-8.483c-7.32-7.308-24.626-7.6-59.9-7.528h-.515v-24h2.67c24.381-.044 54.441-.087 61.907 3a8 8 0 0 0 15.423-2.989 11.371 11.371 0 0 0 -3.429-8.069c-7.731-7.721-28.238-8.017-73.926-7.942zm11.984 96.011a24 24 0 0 1 -45.258 0z"/><path d="m24 400h64v64a32 32 0 0 0 64 0v-64h16v64a32 32 0 0 0 64 0v-64h64a8 8 0 0 0 8-8v-224a8 8 0 0 0 -8-8h-24.581a56.078 56.078 0 0 0 -55.419-48h-26.421a72.557 72.557 0 0 0 5.431-7.384c8.012-12.44 12.99-28.003 12.99-40.616a48 48 0 0 0 -96 0c0 12.613 4.978 28.176 12.99 40.616a72.557 72.557 0 0 0 5.431 7.384h-26.421a56.078 56.078 0 0 0 -55.419 48h-24.581a8 8 0 0 0 -8 8v224a8 8 0 0 0 8 8zm112 64a16 16 0 0 1 -32 0v-64h32zm80 0a16 16 0 0 1 -32 0v-64h32zm-88-400a32 32 0 0 1 64 0c0 19.828-16.55 48-32 48s-32-28.172-32-48zm-24 64h112a40.069 40.069 0 0 1 39.2 32h-190.395a40.069 40.069 0 0 1 39.195-32zm-72 48h256v208h-256z"/><path d="m384 448v-384a8 8 0 0 0 -8-8h-144a8 8 0 0 0 0 16h136v368h-88a8 8 0 0 0 0 16h96a8 8 0 0 0 8-8z"/></svg>