<?xml version="1.0"?>
<svg xmlns="http://www.w3.org/2000/svg" xmlns:xlink="http://www.w3.org/1999/xlink" version="1.1" id="Capa_1" x="0px" y="0px" viewBox="0 0 480 480" style="enable-background:new 0 0 480 480;" xml:space="preserve" width="512px" height="512px"><g><g>
	<g>
		<path d="M408,127.992l-72,112h47.488c0,79.12-64.368,143.488-143.488,143.488c-46.4,0-87.616-22.24-113.856-56.512l-27.168,42.256    C133.984,407.4,184.112,431.496,240,431.496c105.76,0,191.488-85.728,191.488-191.488H480L408,127.992z"
			class="active-path" fill="#194C80"/>
	</g>
</g><g>
	<g>
		<path d="M240,48.504c-105.76,0-191.488,85.728-191.488,191.488H0l72,112l72-112H96.512c0-79.12,64.368-143.488,143.488-143.488    c46.4,0,87.616,22.24,113.856,56.512l27.168-42.256C346.016,72.584,295.888,48.504,240,48.504z"
			class="active-path" fill="#194C80"/>
	</g>
</g><g>
	<g>
		<path d="M329.68,266.84c-8.688-6.368-26.32-17.056-52.72-22.8c-10.464,7.456-23.168,11.952-36.96,11.952    s-26.496-4.48-36.96-11.936c-26.4,5.744-44.032,16.432-52.736,22.8c-4.048,2.96-6.32,7.728-6.32,12.752L144,303.992h192v-24.4    C336,274.584,333.728,269.816,329.68,266.84z"
			class="active-path" fill="#194C80"/>
	</g>
</g><g>
	<g>
		<circle cx="240" cy="192.008" r="48" class="active-path" fill="#194C80"/>
	</g>
</g></g> </svg>
