<?xml version="1.0"?>
<svg xmlns="http://www.w3.org/2000/svg" height="512px" viewBox="0 -21 512 512" width="512px" class=""><g><path d="m469.332031 330.667969c-42.664062 0-128 53.992187-170.664062 53.992187-42.667969 0-90.667969-32.660156-90.667969-32.660156s57.472656 10.667969 90.667969 10.667969c33.195312 0 42.664062-11.328125 42.664062-26.667969 0-37.332031-63.402343-43.136719-95.488281-48.019531-41.277344-22.976563-56.554688-39.660157-160.511719-37.015625l-21.332031 143.746094c-4.671875-2.5625 148.160156 74.621093 213.332031 74.621093 64 0 234.667969-85.332031 234.667969-106.664062 0-21.335938-21.332031-32-42.667969-32zm0 0" fill="#607d8b"
    class="" style="fill:#FFFFFF" /><path d="m10.496094 213.375c-5.824219.109375-10.496094 4.84375-10.496094 10.667969v191.957031c0 5.886719 4.777344 10.667969 10.667969 10.667969h45.269531c4.777344 0 8.957031-3.160157 10.261719-7.746094l47.207031-166.355469c3.050781-10.753906-2.707031-22.058594-13.226562-25.878906-19.328126-7.039062-48.980469-13.996094-89.683594-13.3125zm0 0" fill="#cfd8dc"
    class="active-path" style="fill:#194C80" /><path d="m441.664062 116.671875c.40625-3.304687 1.003907-6.570313 1.003907-10.003906 0-3.4375-.597657-6.699219-1.003907-10.007813l19.222657-14.546875c4.285156-3.242187 5.480469-9.175781 2.792969-13.847656l-17.257813-29.867187c-2.6875-4.648438-8.425781-6.589844-13.375-4.5l-22.125 9.324218c-5.398437-4.117187-11.136719-7.746094-17.472656-10.390625l-2.941407-23.488281c-.683593-5.332031-5.207031-9.34375-10.582031-9.34375h-34.496093c-5.375 0-9.921876 4.011719-10.582032 9.34375l-2.945312 23.488281c-6.335938 2.644531-12.09375 6.292969-17.46875 10.390625l-22.125-9.324218c-4.96875-2.089844-10.707032-.171876-13.398438 4.5l-17.234375 29.867187c-2.6875 4.652344-1.496093 10.582031 2.792969 13.847656l19.222656 14.546875c-.425781 3.308594-1.023437 6.570313-1.023437 10.007813 0 3.433593.597656 6.699219 1 10.003906l-19.21875 14.550781c-4.289063 3.242188-5.484375 9.171875-2.796875 13.84375l17.257812 29.886719c2.691406 4.652344 8.429688 6.59375 13.378906 4.503906l22.121094-9.34375c5.398438 4.117188 11.136719 7.742188 17.472656 10.386719l2.945313 23.488281c.679687 5.335938 5.203125 9.34375 10.578125 9.34375h34.496094c5.378906 0 9.921875-4.007812 10.582031-9.34375l2.945313-23.488281c6.335937-2.644531 12.09375-6.292969 17.472656-10.386719l22.121094 9.320313c4.949218 2.089844 10.6875.171875 13.375-4.5l17.261718-29.867188c2.6875-4.652344 1.492188-10.582031-2.796875-13.84375zm0 0" fill="#4caf50"
    class="" style="fill:#E3E9ED" /><path d="m405.332031 106.667969c0 23.5625-19.101562 42.664062-42.664062 42.664062-23.566407 0-42.667969-19.101562-42.667969-42.664062 0-23.566407 19.101562-42.667969 42.667969-42.667969 23.5625 0 42.664062 19.101562 42.664062 42.667969zm0 0" fill="#fff"
    class="" style="fill:#FFFFFF" /></g> </svg>
